<?xml version="1.0" encoding="utf-8"?><svg xmlns="http://www.w3.org/2000/svg" xmlns:xlink="http://www.w3.org/1999/xlink"><symbol viewBox="0 0 67 67" id="facebook-icon" xmlns="http://www.w3.org/2000/svg"><path d="M29.765 50.32h6.744V33.998h4.499l.596-5.624h-5.095l.007-2.816c0-1.466.14-2.253 2.244-2.253h2.812V17.68h-4.5c-5.405 0-7.307 2.729-7.307 7.317v3.377h-3.369v5.625h3.369V50.32zM34 64C17.432 64 4 50.568 4 34 4 17.431 17.432 4 34 4s30 13.431 30 30c0 16.568-13.432 30-30 30z" fill-rule="evenodd" clip-rule="evenodd"/></symbol><symbol viewBox="0 0 1024 1024" id="github-icon" xmlns="http://www.w3.org/2000/svg"><path d="M512 0C229.25 0 0 229.25 0 512c0 226.25 146.688 418.125 350.156 485.812 25.594 4.688 34.938-11.125 34.938-24.625 0-12.188-.469-52.562-.719-95.312C242 908.812 211.906 817.5 211.906 817.5c-23.312-59.125-56.844-74.875-56.844-74.875-46.531-31.75 3.53-31.125 3.53-31.125 51.406 3.562 78.47 52.75 78.47 52.75 45.688 78.25 119.875 55.625 149 42.5 4.654-33 17.904-55.625 32.5-68.375-113.656-12.937-233.218-56.875-233.218-253.063 0-55.938 19.969-101.562 52.656-137.406-5.219-13-22.844-65.094 5.062-135.562 0 0 42.938-13.75 140.812 52.5 40.812-11.406 84.594-17.031 128.125-17.219 43.5.188 87.312 5.875 128.188 17.281 97.688-66.312 140.688-52.5 140.688-52.5 28 70.531 10.375 122.562 5.125 135.5 32.812 35.844 52.625 81.469 52.625 137.406 0 196.688-119.75 240-233.812 252.688 18.438 15.875 34.75 47 34.75 94.75 0 68.438-.688 123.625-.688 140.5 0 13.625 9.312 29.562 35.25 24.562C877.438 930 1024 738.125 1024 512 1024 229.25 794.75 0 512 0z"/></symbol><symbol viewBox="0 0 67 67" id="linkedin-icon" xmlns="http://www.w3.org/2000/svg"><path d="M50.837 48.137V36.425c0-6.275-3.35-9.195-7.816-9.195-3.604 0-5.219 1.983-6.119 3.374V27.71h-6.79c.09 1.917 0 20.427 0 20.427h6.79V36.729c0-.609.044-1.219.224-1.655.49-1.22 1.607-2.483 3.482-2.483 2.458 0 3.44 1.873 3.44 4.618v10.929h6.789zM22.959 24.922c2.367 0 3.842-1.57 3.842-3.531-.044-2.003-1.475-3.528-3.797-3.528s-3.841 1.524-3.841 3.528c0 1.961 1.474 3.531 3.753 3.531h.043zM34 64C17.432 64 4 50.568 4 34 4 17.431 17.432 4 34 4s30 13.431 30 30c0 16.568-13.432 30-30 30zm-7.646-15.863V27.71h-6.789v20.427h6.789z" fill-rule="evenodd" clip-rule="evenodd"/></symbol><symbol viewBox="0 0 24 24" id="mail-icon" xmlns="http://www.w3.org/2000/svg"><path clip-rule="evenodd" d="M11.984 13C10.031 13-.031 4.891-.031 4.891V4c0-1.104.896-2 2.002-2h20.026C23.104 2 24 2.896 24 4l-.016 1s-9.953 8-12 8zm0 2.75c2.141 0 12-7.75 12-7.75L24 20c0 1.104-.896 2-2.003 2H1.971a2.002 2.002 0 01-2.002-2l.016-12c-.001 0 10.046 7.75 11.999 7.75z" fill-rule="evenodd"/></symbol><symbol viewBox="0 0 100 100" id="whatsapp-icon" xmlns="http://www.w3.org/2000/svg"><path d="M95 49.247c0 24.213-19.779 43.841-44.182 43.841a44.256 44.256 0 01-21.357-5.455L5 95.406l7.975-23.522a43.38 43.38 0 01-6.34-22.637c0-24.213 19.781-43.841 44.184-43.841C75.223 5.406 95 25.034 95 49.247M50.818 12.388c-20.484 0-37.146 16.535-37.146 36.859 0 8.066 2.629 15.535 7.076 21.611l-4.641 13.688 14.275-4.537a37.122 37.122 0 0020.437 6.097c20.481 0 37.146-16.533 37.146-36.858-.001-20.324-16.664-36.86-37.147-36.86m22.311 46.956c-.273-.447-.994-.717-2.076-1.254-1.084-.537-6.41-3.138-7.4-3.494-.993-.359-1.717-.539-2.438.536-.721 1.076-2.797 3.495-3.43 4.212-.632.719-1.263.809-2.347.271-1.082-.537-4.571-1.673-8.708-5.334-3.219-2.847-5.393-6.364-6.025-7.44-.631-1.075-.066-1.656.475-2.191.488-.482 1.084-1.255 1.625-1.882.543-.628.723-1.075 1.082-1.793.363-.717.182-1.344-.09-1.883-.27-.537-2.438-5.825-3.34-7.976-.902-2.151-1.803-1.793-2.436-1.793-.631 0-1.354-.09-2.076-.09s-1.896.269-2.889 1.344c-.992 1.076-3.789 3.676-3.789 8.963 0 5.288 3.879 10.397 4.422 11.114.541.716 7.49 11.92 18.5 16.223 11.011 4.3 11.011 2.865 12.997 2.685 1.984-.179 6.406-2.599 7.312-5.107.9-2.512.9-4.663.631-5.111"/></symbol></svg>